<svg xmlns="http://www.w3.org/2000/svg" width="22" height="16.5" viewBox="0 0 22 16.5">
  <g id="_48px_vietnam" data-name="48px_vietnam" transform="translate(0 -6)">
    <g id="Group_14251" data-name="Group 14251" transform="translate(0 6)">
      <path id="Path_22775" data-name="Path 22775" d="M22,21.583a.917.917,0,0,1-.917.917H.917A.917.917,0,0,1,0,21.583V6.917A.917.917,0,0,1,.917,6H21.083A.917.917,0,0,1,22,6.917Z" transform="translate(0 -6)" fill="#d82827"/>
      <path id="Path_22776" data-name="Path 22776" d="M23.3,18.139H20.6l-1.132-2.455-1.133,2.455h-2.7L17.61,20.18l-.729,2.958,2.589-1.471,2.589,1.471-.729-2.958Z" transform="translate(-8.471 -11.245)" fill="#fffd38"/>
    </g>
  </g>
</svg>
