<svg xmlns="http://www.w3.org/2000/svg" width="40" height="40" viewBox="0 0 40 40">
  <g id="Group_49196" data-name="Group 49196" transform="translate(-8676 -4439)">
    <path id="Path_102876" data-name="Path 102876" d="M20,40A20,20,0,1,0,0,20,20,20,0,0,0,20,40Z" transform="translate(8675.999 4438.999)" fill="#dadce0" opacity="0.5"/>
    <g id="Group_49195" data-name="Group 49195" transform="translate(8684.597 4447.6)">
      <g id="Group_49194" data-name="Group 49194">
        <path id="Path_102888" data-name="Path 102888" d="M15.769,0h.162A4.876,4.876,0,0,1,14.7,3.675a3.807,3.807,0,0,1-3.351,1.573A4.73,4.73,0,0,1,12.6,1.687,5.4,5.4,0,0,1,15.769,0Z"/>
        <path id="Path_102889" data-name="Path 102889" d="M20.67,16.716v.045a13.25,13.25,0,0,1-1.9,3.655c-.723,1-1.609,2.334-3.191,2.334-1.367,0-2.275-.879-3.676-.9-1.482-.024-2.3.735-3.652.926H7.793A4.126,4.126,0,0,1,5.41,21.131,14.386,14.386,0,0,1,2.1,12.855V11.836A6.674,6.674,0,0,1,5.018,6.358a4.921,4.921,0,0,1,3.3-.765,8.312,8.312,0,0,1,1.619.464,4.47,4.47,0,0,0,1.618.485A3.884,3.884,0,0,0,12.694,6.2a6.984,6.984,0,0,1,3.652-.648,5.067,5.067,0,0,1,3.723,2.22,4.778,4.778,0,0,0-2.427,4.74A4.893,4.893,0,0,0,20.67,16.716Z"/>
      </g>
    </g>
  </g>
</svg>
