<svg xmlns="http://www.w3.org/2000/svg" xmlns:xlink="http://www.w3.org/1999/xlink" width="196.993" height="35.991" viewBox="0 0 196.993 35.991"><defs><linearGradient id="a" x1="0.347" y1="-0.008" x2="0.548" y2="0.943" gradientUnits="objectBoundingBox"><stop offset="0" stop-color="#f1040c"/><stop offset="0.95" stop-color="#fc4f4f"/></linearGradient><linearGradient id="b" x1="37.053" y1="27.549" x2="37.286" y2="28.369" gradientUnits="objectBoundingBox"><stop offset="0.08" stop-color="#0073e6"/><stop offset="1" stop-color="#00a7ff"/></linearGradient><linearGradient id="c" x1="58.881" y1="-4.367" x2="59.082" y2="-3.416" gradientUnits="objectBoundingBox"><stop offset="0.11" stop-color="#02b514"/><stop offset="0.99" stop-color="#3bde05"/></linearGradient><linearGradient id="d" x1="31.489" y1="-31.173" x2="31.722" y2="-30.353" gradientUnits="objectBoundingBox"><stop offset="0" stop-color="#f1a204"/><stop offset="1" stop-color="#fd0"/></linearGradient></defs><g transform="translate(-5.998 -6.008)"><g transform="translate(-3)"><path d="M15.31,37.69a18,18,0,0,0,23.52-.13A14.545,14.545,0,0,1,19.17,24.25V24a7.74,7.74,0,0,1,1.34-4.35A13.91,13.91,0,0,0,12.91,32a14.1,14.1,0,0,0,.53,3.82,18.15,18.15,0,0,0,1.87,1.87Z" fill="url(#a)"/><path d="M13.31,12.31a18,18,0,0,0,.13,23.53,14.53,14.53,0,0,1,7.17-18.15,14.28,14.28,0,0,1,6.15-1.51H27a7.83,7.83,0,0,1,4.35,1.35,13.94,13.94,0,0,0-16.22-7.07,19.1,19.1,0,0,0-1.82,1.85Z" fill="url(#b)"/><path d="M38.69,10.32a18,18,0,0,0-23.53.13A14.55,14.55,0,0,1,34.83,23.77V24a7.82,7.82,0,0,1-1.34,4.35,13.94,13.94,0,0,0,7.06-16.22,18,18,0,0,0-1.86-1.81Z" fill="url(#c)"/><path d="M40.68,35.7a18,18,0,0,0-.13-23.53A14.532,14.532,0,0,1,27.24,31.83H27a7.86,7.86,0,0,1-4.35-1.35A13.92,13.92,0,0,0,35,38.09a13.72,13.72,0,0,0,3.82-.53,19.1,19.1,0,0,0,1.86-1.86Z" fill="url(#d)"/></g><path d="M58,31.94H54V13h5.8l4.72,14.48L69.26,13H75V31.9H71.13l.31-14.7L66.7,31.94H62.52L57.63,17.11Z" transform="translate(0 2.008)"/><path d="M79,13h4V31.9H79Z" transform="translate(0 2.008)"/><path d="M92.78,13h10.4v3.39H93.41c-2.06,0-3.09.82-3.09,2.47A1.67,1.67,0,0,0,91,20.42a2.8,2.8,0,0,0,1.8.53H98a15.42,15.42,0,0,1,2.7.21,4.91,4.91,0,0,1,2.3,1.28c.76.69,1.14,2,1.14,3.85a8.55,8.55,0,0,1-.11,1.4,7.64,7.64,0,0,1-.48,1.52,3.6,3.6,0,0,1-1.2,1.52,5,5,0,0,1-2,.92,10.66,10.66,0,0,1-2.78.29H87V28.55h9.9a4.93,4.93,0,0,0,2.26-.43,1.71,1.71,0,0,0,.8-1.65v-.39a2,2,0,0,0-.42-1.19,2.33,2.33,0,0,0-1-.52,5.94,5.94,0,0,0-1.35-.13H92.48A7.45,7.45,0,0,1,87.82,23c-1.09-.84-1.64-2.25-1.64-4.23a6.88,6.88,0,0,1,.5-2.68A4.24,4.24,0,0,1,88,14.23a5.41,5.41,0,0,1,2-.91A10.65,10.65,0,0,1,92.78,13Z" transform="translate(0 2.009)"/><path d="M108.7,31.94h-4.19L112.42,13h4.19l8,18.9h-4.4l-1.73-4.52h-8.2Zm2.91-7.86h5.63l-2.86-7.23Z" transform="translate(0 2.008)"/><path d="M135.38,31.94H131.2L139.1,13h4.19l8,18.9h-4.4l-1.72-4.52H137Zm2.91-7.86h5.63l-2.85-7.23Z" transform="translate(0 2.008)"/><path d="M156.73,31.94h-4.06V13h5.84l4.76,14.48L168.07,13h5.78V31.9H170l.32-14.7-4.8,14.7h-4.21l-4.95-14.83Z" transform="translate(0 2.008)"/><path d="M178,13h4V31.9h-4Z" transform="translate(0 2.008)"/><path d="M191.69,13H202v3.39h-9.65c-2.06,0-3.08.82-3.08,2.47a1.69,1.69,0,0,0,.7,1.52,2.8,2.8,0,0,0,1.8.53h5.19a15.38,15.38,0,0,1,2.69.21,5,5,0,0,1,2.21,1.28c.75.69,1.13,2,1.13,3.85a7,7,0,0,1-.59,2.92,3.6,3.6,0,0,1-1.2,1.52,4.93,4.93,0,0,1-2,.92,10.5,10.5,0,0,1-2.76.29H186V28.55h9.76a4.93,4.93,0,0,0,2.26-.43,1.71,1.71,0,0,0,.79-1.65v-.39a2,2,0,0,0-.42-1.19,2.29,2.29,0,0,0-1-.52,5.94,5.94,0,0,0-1.35-.13h-4.65A7.4,7.4,0,0,1,186.75,23c-1.09-.84-1.63-2.25-1.63-4.23a6.88,6.88,0,0,1,.49-2.68A4.24,4.24,0,0,1,187,14.23a5.29,5.29,0,0,1,2-.91,10.57,10.57,0,0,1,2.69-.32Z" transform="translate(0 2.008)"/></g></svg>