<svg xmlns="http://www.w3.org/2000/svg" width="40" height="40" viewBox="0 0 40 40">
  <g id="Group_49187" data-name="Group 49187" transform="translate(-0.001 -0.001)">
    <path id="Path_102871" data-name="Path 102871" d="M20,40A20,20,0,1,0,0,20,20,20,0,0,0,20,40Z" fill="#dadce0" opacity="0.5"/>
    <path id="Path_102872" data-name="Path 102872" d="M32.042,20.334a14.383,14.383,0,0,0-.211-2.486H20.291v4.711h6.6a5.664,5.664,0,0,1-2.445,3.717v3.057h3.945a11.948,11.948,0,0,0,3.649-9Z" fill="#4285f4"/>
    <path id="Path_102873" data-name="Path 102873" d="M20.185,32.287a11.711,11.711,0,0,0,8.109-2.953l-3.942-3.057a7.42,7.42,0,0,1-11.03-3.88H9.252v3.149a12.235,12.235,0,0,0,10.933,6.741Z" fill="#34a853"/>
    <path id="Path_102874" data-name="Path 102874" d="M13.317,22.342a7.327,7.327,0,0,1,0-4.685V14.508H9.252a12.244,12.244,0,0,0,0,10.983Z" fill="#fbbc04"/>
    <path id="Path_102875" data-name="Path 102875" d="M20.245,12.552a6.706,6.706,0,0,1,4.719,1.834l3.512-3.493a11.86,11.86,0,0,0-8.231-3.182A12.307,12.307,0,0,0,9.252,14.453L13.339,17.6a7.354,7.354,0,0,1,6.907-5.053Z" fill="#ea4335"/>
  </g>
</svg>
